<?xml version="1.0"?>
<svg xmlns="http://www.w3.org/2000/svg" xmlns:xlink="http://www.w3.org/1999/xlink" id="Layer_1" data-name="Layer 1" viewBox="0 0 1000 1000">
  <defs>
    <style>.cls-1{fill:url(#linear-gradient);}.cls-2{fill:url(#linear-gradient-2);}.cls-3{fill:url(#linear-gradient-3);}.cls-4{clip-path:url(#clip-path);}.cls-5{fill:url(#linear-gradient-5);}.cls-6{fill:#79a2ed;}</style>
    <linearGradient id="linear-gradient" x1="193.41" y1="691.05" x2="806.21" y2="691.05" gradientUnits="userSpaceOnUse">
      <stop offset="0" stop-color="#f1f1f1"/>
      <stop offset="1" stop-color="#b7b7b7"/>
    </linearGradient>
    <linearGradient id="linear-gradient-2" x1="938.8" y1="269.4" x2="717.23" y2="269.4" xlink:href="#linear-gradient"/>
    <linearGradient id="linear-gradient-3" x1="56.32" y1="269.4" x2="277.93" y2="269.4" xlink:href="#linear-gradient"/>
    <clipPath id="clip-path">
      <path class="cls-1" d="M619.37,973.5c223.43-94.88,253.49-400.45,52.09-536.74-202-136.24-477.6,7.88-478.05,254.24C192.66,909.32,418.54,1059,619.37,973.5Zm27-65.33a261.4,261.4,0,0,1-43.15,23.57c1.38-2.06,2.75-4.15,4.09-6.28,16.77-26.72,30.2-59.17,39.9-95.73a263.52,263.52,0,0,1,45.13,38.91A262.91,262.91,0,0,1,646.42,908.17Zm73.72-359.11a261.28,261.28,0,0,1,0,283.85A307.84,307.84,0,0,0,657.19,783a582.51,582.51,0,0,0,0-184A307.44,307.44,0,0,0,720.14,549.06ZM692.4,513.34a263.46,263.46,0,0,1-45.16,38.93,405.11,405.11,0,0,0-16.89-50.61,297,297,0,0,0-23.73-46.29q-1.65-2.6-3.35-5.11A262.52,262.52,0,0,1,692.4,513.34Zm-170-79.18A77.25,77.25,0,0,1,538.28,444c10.67,8.39,21.39,20.65,31.22,36.31,14.77,23.47,27.5,54.49,36.35,90.46.33,1.34.65,2.71,1,4.06a260,260,0,0,1-84.45,21.76Zm0,207.29a305,305,0,0,0,92.73-21.54,542.2,542.2,0,0,1,0,142.17,305.26,305.26,0,0,0-92.73-21.55Zm0,143.93a260,260,0,0,1,84.45,21.76A373,373,0,0,1,589,863.28a254.48,254.48,0,0,1-20.12,39.34c-10.87,17.11-22.8,30-34.53,38.27a73.72,73.72,0,0,1-12,6.93ZM353.6,473.82a261.9,261.9,0,0,1,43.16-23.57c-1.38,2.06-2.75,4.15-4.09,6.28-16.77,26.72-30.2,59.17-39.9,95.73a264,264,0,0,1-45.13-38.91A263.21,263.21,0,0,1,353.6,473.82ZM279.89,832.93a261.28,261.28,0,0,1,0-283.85A307.84,307.84,0,0,0,342.84,599a582.9,582.9,0,0,0,0,184A307.65,307.65,0,0,0,279.89,832.93Zm27.74,35.72a263.46,263.46,0,0,1,45.16-38.93,405.11,405.11,0,0,0,16.89,50.61,297.84,297.84,0,0,0,23.72,46.29c1.11,1.73,2.23,3.42,3.36,5.11A262.52,262.52,0,0,1,307.63,868.65Zm170,79.18A77.25,77.25,0,0,1,461.75,938c-10.67-8.39-21.39-20.65-31.22-36.31-14.77-23.47-27.5-54.49-36.35-90.46-.33-1.34-.65-2.71-1-4.07a260.2,260.2,0,0,1,84.45-21.75Zm0-207.3a305.26,305.26,0,0,0-92.73,21.55,542.2,542.2,0,0,1,0-142.17,305,305,0,0,0,92.73,21.54Zm0-143.92a260,260,0,0,1-84.45-21.76A373,373,0,0,1,411,518.71a254.48,254.48,0,0,1,20.12-39.34c10.87-17.11,22.8-30,34.53-38.27a73,73,0,0,1,12-6.93Z"/>
    </clipPath>
    <linearGradient id="linear-gradient-5" x1="500.02" y1="258.48" x2="500.02" y2="1073.6" xlink:href="#linear-gradient"/>
  </defs>
  <path class="cls-2" d="M934.55,124a22.37,22.37,0,0,0-31.26,4.84l-175,239a32.21,32.21,0,1,0,53.19,36.29L940.22,154.06A22.43,22.43,0,0,0,934.55,124Z"/>
  <path class="cls-3" d="M96.74,128.86a22.37,22.37,0,0,0-36.93,25.2L218.52,404.14a32.21,32.21,0,1,0,53.19-36.29Z"/>
  <path class="cls-1" d="M619.37,973.5c223.43-94.88,253.49-400.45,52.09-536.74-202-136.24-477.6,7.88-478.05,254.24C192.66,909.32,418.54,1059,619.37,973.5Zm27-65.33a261.4,261.4,0,0,1-43.15,23.57c1.38-2.06,2.75-4.15,4.09-6.28,16.77-26.72,30.2-59.17,39.9-95.73a263.52,263.52,0,0,1,45.13,38.91A262.91,262.91,0,0,1,646.42,908.17Zm73.72-359.11a261.28,261.28,0,0,1,0,283.85A307.84,307.84,0,0,0,657.19,783a582.51,582.51,0,0,0,0-184A307.44,307.44,0,0,0,720.14,549.06ZM692.4,513.34a263.46,263.46,0,0,1-45.16,38.93,405.11,405.11,0,0,0-16.89-50.61,297,297,0,0,0-23.73-46.29q-1.65-2.6-3.35-5.11A262.52,262.52,0,0,1,692.4,513.34Zm-170-79.18A77.25,77.25,0,0,1,538.28,444c10.67,8.39,21.39,20.65,31.22,36.31,14.77,23.47,27.5,54.49,36.35,90.46.33,1.34.65,2.71,1,4.06a260,260,0,0,1-84.45,21.76Zm0,207.29a305,305,0,0,0,92.73-21.54,542.2,542.2,0,0,1,0,142.17,305.26,305.26,0,0,0-92.73-21.55Zm0,143.93a260,260,0,0,1,84.45,21.76A373,373,0,0,1,589,863.28a254.48,254.48,0,0,1-20.12,39.34c-10.87,17.11-22.8,30-34.53,38.27a73.72,73.72,0,0,1-12,6.93ZM353.6,473.82a261.9,261.9,0,0,1,43.16-23.57c-1.38,2.06-2.75,4.15-4.09,6.28-16.77,26.72-30.2,59.17-39.9,95.73a264,264,0,0,1-45.13-38.91A263.21,263.21,0,0,1,353.6,473.82ZM279.89,832.93a261.28,261.28,0,0,1,0-283.85A307.84,307.84,0,0,0,342.84,599a582.9,582.9,0,0,0,0,184A307.65,307.65,0,0,0,279.89,832.93Zm27.74,35.72a263.46,263.46,0,0,1,45.16-38.93,405.11,405.11,0,0,0,16.89,50.61,297.84,297.84,0,0,0,23.72,46.29c1.11,1.73,2.23,3.42,3.36,5.11A262.52,262.52,0,0,1,307.63,868.65Zm170,79.18A77.25,77.25,0,0,1,461.75,938c-10.67-8.39-21.39-20.65-31.22-36.31-14.77-23.47-27.5-54.49-36.35-90.46-.33-1.34-.65-2.71-1-4.07a260.2,260.2,0,0,1,84.45-21.75Zm0-207.3a305.26,305.26,0,0,0-92.73,21.55,542.2,542.2,0,0,1,0-142.17,305,305,0,0,0,92.73,21.54Zm0-143.92a260,260,0,0,1-84.45-21.76A373,373,0,0,1,411,518.71a254.48,254.48,0,0,1,20.12-39.34c10.87-17.11,22.8-30,34.53-38.27a73,73,0,0,1,12-6.93Z"/>
  <g class="cls-4">
    <rect class="cls-5" x="92.46" y="298.69" width="815.12" height="769.15"/>
  </g>
  <path class="cls-6" d="M720.71,164.47A678.74,678.74,0,0,0,280,164.24l-.15,0-.53.18h0a23.1,23.1,0,0,0,7.51,44.94h3.86l3.65-1.26a632.75,632.75,0,0,1,411.35,0,23.1,23.1,0,1,0,15-43.69Z"/>
  <path class="cls-6" d="M650.39,290.23a421,421,0,0,0-300.75,0v0a23.1,23.1,0,0,0,8.25,44.67h4.27l4-1.53a374.73,374.73,0,0,1,267.75,0,23.1,23.1,0,1,0,16.5-43.16Z"/>
  <path class="cls-6" d="M791.4,48.22h0l-.13,0L791,48.1a943.38,943.38,0,0,0-582.41.12,23.1,23.1,0,1,0,14.27,44h0a897.17,897.17,0,0,1,554.23,0l3.48,1.13h3.65a23.1,23.1,0,0,0,7.14-45.08Z"/>
</svg>
