<?xml version="1.0"?>
<svg xmlns="http://www.w3.org/2000/svg" xmlns:xlink="http://www.w3.org/1999/xlink" id="Layer_1" data-name="Layer 1" viewBox="0 0 2073.6 767.4">
  <defs>
    <style>.cls-1{fill:none;}.cls-2{clip-path:url(#clip-path);}.cls-3{fill:url(#linear-gradient);}.cls-4{fill:url(#linear-gradient-2);}.cls-5{fill:url(#linear-gradient-3);}.cls-6{clip-path:url(#clip-path-2);}.cls-7{fill:url(#linear-gradient-4);}.cls-8{fill:#79a2ed;}</style>
    <clipPath id="clip-path">
      <path class="cls-1" d="M1453.72,386.78H1210.91a26.11,26.11,0,0,1-26.06-26.23v-92h17.43v92a8.74,8.74,0,0,0,8.8,8.8h173.1c-5.58-3.72-9.14-10.66-9.14-19l.17-7.44c.85-20.48,17.94-37.06,38.41-37.06,15.39,0,30.62,10.15,34.34,24.2l-12.85,11c-2-9.13-9.82-17.59-21.49-17.59a21,21,0,0,0-21,19.79v6.94c0,11.51,9.3,19.12,21,19.12h40.1Zm-850.43,1,.16-7.44c3.56,3.89,9.48,6.43,15.74,6.43H733.07a26.11,26.11,0,0,0,26.06-26.23v-91.7H741.7v91.7a8.85,8.85,0,0,1-8.8,8.8H619.19a15.82,15.82,0,0,1-15.74-15.73V306.41H586V383.9c0,17.77-11.84,23.52-26.56,26.39l6.25,16.59C586,423,601.93,411,603.29,387.79ZM66.38,295.41a10.72,10.72,0,0,0-10.82-10.49,10.58,10.58,0,0,0,0,21.15A10.76,10.76,0,0,0,66.38,295.41ZM546.6,386.78V268.34H529.17V386.78Zm591-117.93h17.43v91.7a26.1,26.1,0,0,1-26,26.23H962.51a23.38,23.38,0,0,1-21.15-12.86,35.05,35.05,0,0,1-27.24,12.86c-8.63,0-16.24-3.39-21-8l-.34,5.42c-1.69,21.65-16.75,33.16-34.68,36.71L854.73,404c14.38-3,21.15-12,21.15-25.21V305.9h38.24c21.32,0,38.41,17.6,38.41,38.75v15.06a9.82,9.82,0,0,0,10,9.64h166.34a8.84,8.84,0,0,0,8.79-8.8Zm-202.37,75.8a20.91,20.91,0,0,0-21.15-21H893.31v26.05c0,12.52,10.15,19.63,20.81,19.63a20.89,20.89,0,0,0,21.15-20.3ZM399.22,360V305.9H381.79V360a9.17,9.17,0,0,1-9.3,9.31h-124a15.82,15.82,0,0,1-15.74-15.73V306.41H215.29V383.9c0,17.77-11.84,23.52-26.56,26.39L195,426.88c20.3-3.9,36.21-15.91,37.56-39.09l.17-7.44c3.55,3.89,9.47,6.43,15.74,6.43H372.32A26.83,26.83,0,0,0,399.22,360ZM175.87,386.78V268.34H158.44V386.78ZM95,295.41a10.73,10.73,0,0,0-10.83-10.49,10.58,10.58,0,0,0,0,21.15A10.76,10.76,0,0,0,95,295.41Zm390.7,94.07.17-2.7H467.07c-22.33,0-39.42-18.11-39.42-40.78,0-22.33,17.09-40.1,39.42-40.1H504v79c0,11.84-4.06,21.65-12.18,29.1-12.35,11.67-26.22,13.87-54.31,13.87l.17-17.43c16.75.17,32.49.17,42.64-9.13C483.14,398.62,485,394.56,485.68,389.48Zm.68-20.13V323.5H467.07c-12.69,0-22.16,9.81-22.16,22.5,0,13,9.47,23.35,22.16,23.35ZM5.81,324.18v28.25A34.56,34.56,0,0,0,40.5,386.78h75.8A16.82,16.82,0,0,0,133.21,370V306.58H115.62v59.05a3.75,3.75,0,0,1-3.72,3.72H40.5a16.75,16.75,0,0,1-16.92-16.92V324.18Zm384.27-43.66a10.58,10.58,0,0,0,10.49,10.66,10.58,10.58,0,1,0-10.49-10.66ZM788.91,386.78h17.43V268.34H788.91ZM361.49,280.52a10.61,10.61,0,0,0,10.66,10.66,10.58,10.58,0,1,0-10.66-10.66Zm-299,280.19-4.23.51L90.74,605l-23,.68L36.94,562.57H19.85v42.81H.39V487.28h53a37.48,37.48,0,0,1,37.56,37.56A36.42,36.42,0,0,1,62.49,560.71Zm8.29-35.87a20,20,0,0,0-20-20h-31v39.93h31A19.9,19.9,0,0,0,70.78,524.84ZM230.17,546.5c0,35.7-25.72,61.41-61.42,61.41-35.87,0-61.58-25.71-61.58-61.41s25.71-61.42,61.58-61.42C204.45,485.08,230.17,510.8,230.17,546.5Zm-20.14,0c0-24.87-17.59-43.15-41.28-43.15-23.86,0-41.45,18.28-41.45,43.15s17.59,43.14,41.45,43.14C192.44,589.64,210,571.37,210,546.5ZM331.7,560.2c0,18.1-10.16,29.27-29.27,29.27-18.28,0-29.27-11.17-29.27-29.27V487.28H253.53V559c0,29.1,19.79,48.72,48.9,48.72,29.94,0,48.89-19.62,48.89-48.72V487.28H331.7Zm36.89-54.82h38.07V605.72h19.46V505.38h38.07v-18.1h-95.6ZM502.43,556h55V538.54h-55V504.88H561v-17.6H483V605.72h79.68V588H502.43Zm148.23,4.74-4.23.51L678.91,605l-23,.68-30.79-43.15H608v42.81H588.56V487.28h53a37.48,37.48,0,0,1,37.56,37.56A36.42,36.42,0,0,1,650.66,560.71Zm8.28-35.87a20,20,0,0,0-20-20H608v39.93h31A19.89,19.89,0,0,0,658.94,524.84Zm95.44,14.38-18.44-4.4c-16.07-3.72-21-8.63-21-16.07,0-10.15,8.29-16.24,23.68-16.24,14.22,0,24.88,5.92,31.65,16.07l13.36-10.66c-7.44-13.87-23.69-22.84-44.84-22.84-27.4,0-43.48,13.7-43.48,34,0,16.75,10.49,27.41,33.17,33l17.76,4.23c15.06,3.55,20.3,8.46,20.3,16.58,0,10.83-9.81,17.43-25.71,17.43-16.42,0-28.09-6.77-35.37-19.46l-13.36,10.49c8,16.75,24.7,26.56,48,26.56,28.08,0,46-14.38,46-36C786.19,555.63,776.71,544.64,754.38,539.22Zm199,39.76-31-91.7h-10l-33,91.19L852,487.28H831.21l36.38,118.44h21.65L917.5,525l26,80.71h22l36-118.44H980.78Zm179.52-32.48c0,35.7-25.71,61.41-61.41,61.41-35.87,0-61.59-25.71-61.59-61.41s25.72-61.42,61.59-61.42C1107.18,485.08,1132.89,510.8,1132.89,546.5Zm-20.13,0c0-24.87-17.59-43.15-41.28-43.15-23.86,0-41.45,18.28-41.45,43.15s17.59,43.14,41.45,43.14C1095.17,589.64,1112.76,571.37,1112.76,546.5Zm106.44,14.21-4.23.51L1247.45,605l-23,.68-30.79-43.15h-17.09v42.81h-19.45V487.28h53a37.48,37.48,0,0,1,37.56,37.56A36.42,36.42,0,0,1,1219.2,560.71Zm8.29-35.87a20,20,0,0,0-20-20h-31v39.93h31A19.9,19.9,0,0,0,1227.49,524.84Zm61.93-37.56H1269.8V605.72h78V587.61h-58.37ZM1469,546.5c0,33.84-23.18,59.22-57,59.22h-43.82V487.28h43.82C1445.6,487.28,1469,512.83,1469,546.5Zm-20.31,0c0-23.86-15.22-41.12-39.08-41.12h-22v82.23h22C1433.42,587.61,1448.64,570.35,1448.64,546.5Z"/>
    </clipPath>
    <linearGradient id="linear-gradient" x1="786.74" y1="20.85" x2="786.74" y2="788.62" gradientUnits="userSpaceOnUse">
      <stop offset="0" stop-color="#606060"/>
      <stop offset="1" stop-color="#1f1f1f"/>
    </linearGradient>
    <linearGradient id="linear-gradient-2" x1="1925.65" y1="222.86" x2="2071.67" y2="222.86" xlink:href="#linear-gradient"/>
    <linearGradient id="linear-gradient-3" x1="1486.88" y1="222.87" x2="1632.93" y2="222.87" xlink:href="#linear-gradient"/>
    <clipPath id="clip-path-2">
      <path class="cls-1" d="M1857.94,687c147.25-62.53,167.06-263.9,34.33-353.72-133.15-89.79-314.75,5.19-315,167.55C1576.73,644.66,1725.59,743.27,1857.94,687Zm17.83-43.05a171.55,171.55,0,0,1-28.44,15.53c.91-1.35,1.82-2.73,2.7-4.14,11-17.6,19.9-39,26.29-63.08a173.37,173.37,0,0,1,29.75,25.64A173.66,173.66,0,0,1,1875.77,643.9Zm48.59-236.66a172.21,172.21,0,0,1,0,187.06,203.25,203.25,0,0,0-41.48-32.88,384.32,384.32,0,0,0,0-121.29A203.14,203.14,0,0,0,1924.36,407.24Zm-18.29-23.54a173.49,173.49,0,0,1-29.76,25.65A267.66,267.66,0,0,0,1865.18,376a196,196,0,0,0-15.64-30.51c-.72-1.14-1.46-2.26-2.21-3.36A172.81,172.81,0,0,1,1906.07,383.7Zm-112-52.19a51.55,51.55,0,0,1,10.49,6.5c7,5.53,14.09,13.61,20.57,23.93,9.73,15.47,18.12,35.91,24,59.62.22.88.43,1.78.64,2.68A171.33,171.33,0,0,1,1794,438.57Zm0,136.62a201.1,201.1,0,0,0,61.11-14.2,357.78,357.78,0,0,1,0,93.69,201.17,201.17,0,0,0-61.11-14.2Zm0,94.85a171.09,171.09,0,0,1,55.65,14.34,244.73,244.73,0,0,1-11.73,37,166.73,166.73,0,0,1-13.26,25.93c-7.16,11.28-15,19.8-22.75,25.22A47.93,47.93,0,0,1,1794,670ZM1682.8,357.65a172,172,0,0,1,28.44-15.53q-1.37,2-2.7,4.14c-11,17.6-19.9,39-26.29,63.08a172.92,172.92,0,0,1-29.74-25.64A173.23,173.23,0,0,1,1682.8,357.65Zm-48.59,236.66a172.13,172.13,0,0,1,0-187.06,202.92,202.92,0,0,0,41.47,32.88,384.32,384.32,0,0,0,0,121.29A203.14,203.14,0,0,0,1634.21,594.31Zm18.29,23.54a173.93,173.93,0,0,1,29.76-25.65,267.66,267.66,0,0,0,11.13,33.35A196,196,0,0,0,1709,656.06c.72,1.14,1.46,2.26,2.21,3.36A172.81,172.81,0,0,1,1652.5,617.85Zm112,52.19a51.23,51.23,0,0,1-10.48-6.5c-7-5.53-14.1-13.61-20.58-23.93-9.73-15.47-18.12-35.91-24-59.62-.22-.88-.43-1.78-.64-2.68A171.33,171.33,0,0,1,1764.55,563Zm0-136.62a201.17,201.17,0,0,0-61.11,14.2,357.78,357.78,0,0,1,0-93.69,201.17,201.17,0,0,0,61.11,14.2Zm0-94.85a171.09,171.09,0,0,1-55.65-14.34,244.73,244.73,0,0,1,11.73-37,167.6,167.6,0,0,1,13.26-25.93c7.16-11.28,15-19.8,22.76-25.23a48.49,48.49,0,0,1,7.9-4.56Z"/>
    </clipPath>
    <linearGradient id="linear-gradient-4" x1="1779.29" y1="215.74" x2="1779.29" y2="752.92" xlink:href="#linear-gradient"/>
  </defs>
  <g class="cls-2">
    <rect class="cls-3" x="-74.28" y="58.72" width="1722.03" height="724.47"/>
  </g>
  <path class="cls-4" d="M2065.66,127.06a14.75,14.75,0,0,0-20.61,3.19l-115.31,157.5a21.23,21.23,0,1,0,35.06,23.91l104.6-164.8A14.79,14.79,0,0,0,2065.66,127.06Z"/>
  <path class="cls-5" d="M1513.52,130.25a14.74,14.74,0,0,0-24.34,16.61l104.6,164.8a21.23,21.23,0,1,0,35-23.91Z"/>
  <g class="cls-6">
    <rect class="cls-7" x="1510.7" y="242.23" width="537.18" height="506.89"/>
  </g>
  <path class="cls-8" d="M1924.73,153.78a447.38,447.38,0,0,0-290.44-.15l-.1,0-.35.12h0a15.22,15.22,0,0,0,5,29.61h2.54l2.41-.82a416.9,416.9,0,0,1,271.09,0,15.23,15.23,0,1,0,9.9-28.8Z"/>
  <path class="cls-8" d="M1878.39,236.66a277.51,277.51,0,0,0-198.21,0h0a15.22,15.22,0,0,0,5.43,29.44h2.81l2.63-1a247.05,247.05,0,0,1,176.45,0,15.23,15.23,0,0,0,10.88-28.44Z"/>
  <path class="cls-8" d="M1971.32,77.17h0l-.09,0-.15,0a621.73,621.73,0,0,0-383.82.08,15.22,15.22,0,1,0,9.4,29h0a591.28,591.28,0,0,1,365.25,0l2.29.75h2.41a15.23,15.23,0,0,0,4.71-29.71Z"/>
</svg>
